<svg xmlns="http://www.w3.org/2000/svg" viewBox="0 0 40 28.11"><path d="M19.37 10.07A9.89 9.89 0 0 0 9.69 0a9.59 9.59 0 0 0-8.07 4.49A10.32 10.32 0 0 0 0 10.07v2C.67 20 7.16 22.3 12.5 24.34c2.49 1 4.84 1.84 6.3 3.23l.57.54v-4.64l-.17-.1a24.88 24.88 0 0 0-4.2-1.81C10.31 19.89 4.11 17.82 3.75 12h15.62zM3.55 8.75l.1-.41a6.32 6.32 0 0 1 .85-2 6.14 6.14 0 0 1 5.18-2.88 6.26 6.26 0 0 1 6 4.88l.1.41z" fill="#ed147d"/><path d="M20.63 12h15.62c-.37 5.8-6.57 7.87-11.2 9.54a25 25 0 0 0-4.25 1.81l-.17.1v4.64l.57-.54c1.46-1.39 3.81-2.27 6.3-3.23C32.84 22.3 39.33 20 40 12v-2a10.32 10.32 0 0 0-1.62-5.58A9.59 9.59 0 0 0 30.31 0a9.89 9.89 0 0 0-9.68 10.07zm3.57-3.25l.1-.41a6.24 6.24 0 0 1 6-4.88 6.15 6.15 0 0 1 5.2 2.88 6.32 6.32 0 0 1 .85 2l.1.41z" fill="#3c4550"/></svg>
